# File created by Blade
# Date/Time:  Tue Jan 27 19:14:14 2015
#---------------------------------------------------------
:version 1.10
:name HOM
:units
  mass 1.0
  length 1.000000
  angle deg
:documentation
     Acclaim Skeleton File
:root
   axis xyz
   order TX TY TZ RX RY RZ
   position 0.000000 0.000000 0.000000
   orientation 0 0 0
:bonedata
   begin
      id 1
      name Spine_dum
      direction 0.000000 1.000000 0.000000
      length 6.116652
      axis 0.0 0.0 0.0 xyz
   end
   begin
      id 2
      name LeftUpLeg_dum
      direction 1.000000 0.000000 0.000000
      length 4.711765
      axis 0.0 0.0 0.0 xyz
   end
   begin
      id 3
      name RightUpLeg_dum
      direction -1.000000 0.000000 0.000000
      length 4.711765
      axis 0.0 0.0 0.0 xyz
   end
   begin
      id 4
      name Spine
      direction 0.000000 1.000000 0.000000
      length 0.000000
      axis 0.0 0.0 0.0 xyz
      dof rx ry rz
   end
   begin
      id 5
      name Spine_dum1
      direction 0.000000 1.000000 0.000000
      length 15.225563
      axis 0.0 0.0 0.0 xyz
   end
   begin
      id 6
      name Spine_dum2
      direction 0.000000 1.000000 0.000000
      length 8.977654
      axis 0.0 0.0 0.0 xyz
   end
   begin
      id 7
      name Spine_dum3
      direction 0.000000 1.000000 0.000000
      length 8.977654
      axis 0.0 0.0 0.0 xyz
   end
   begin
      id 8
      name Head
      direction 0.000000 1.000000 0.000000
      length 4.527550
      axis 0.0 0.0 0.0 xyz
      dof rx ry rz
   end
   begin
      id 9
      name LeftShoulder
      direction 1.000000 0.000000 0.000000
      length 7.110130
      axis 0.0 0.0 -90.0 xyz
      dof rx ry rz
   end
   begin
      id 10
      name LeftArm
      direction 1.000000 0.000000 0.000000
      length 10.398341
      axis 0.0 0.0 -90.0 xyz
      dof rx ry rz
   end
   begin
      id 11
      name LeftForeArm
      direction 1.000000 0.000000 0.000000
      length 8.888997
      axis 0.0 0.0 -90.0 xyz
      dof ry rz rx
   end
   begin
      id 12
      name LeftHand
      direction 0.000000 0.000000 0.000000
      length 0.000000
      axis 0.0 0.0 -90.0 xyz
      dof rx ry rz
   end
   begin
      id 13
      name LeftHand_dum1
      direction 0.000000 0.000000 0.000000
      length 0.000000
      axis 0.0 0.0 -90.0 xyz
   end
   begin
      id 14
      name LeftHand_dum2
      direction 1.000000 0.000000 0.000000
      length 3.937000
      axis 0.0 0.0 -90.0 xyz
   end
   begin
      id 15
      name LeftHandThumb1
      direction 0.000000 0.000000 1.000000
      length 3.937000
      axis 0.0 0.0 -90.0 xyz
      dof rx rz ry
   end
   begin
      id 16
      name RightShoulder
      direction -1.000000 0.000000 0.000000
      length 7.110130
      axis 0.0 0.0 90.0 xyz
      dof rx ry rz
   end
   begin
      id 17
      name RightArm
      direction -1.000000 0.000000 0.000000
      length 10.398341
      axis 0.0 0.0 90.0 xyz
      dof rx ry rz
   end
   begin
      id 18
      name RightForeArm
      direction -1.000000 0.000000 0.000000
      length 8.888997
      axis 0.0 0.0 90.0 xyz
      dof ry rz rx
   end
   begin
      id 19
      name RightHand
      direction 0.000000 0.000000 0.000000
      length 0.000000
      axis 0.0 0.0 90.0 xyz
      dof rx ry rz
   end
   begin
      id 20
      name RightHand_dum1
      direction 0.000000 0.000000 0.000000
      length 0.000000
      axis 0.0 0.0 90.0 xyz
   end
   begin
      id 21
      name RightHand_dum2
      direction -1.000000 0.000000 0.000000
      length 3.937000
      axis 0.0 0.0 90.0 xyz
   end
   begin
      id 22
      name RightHandThumb1
      direction 0.000000 0.000000 1.000000
      length 3.937000
      axis 0.0 0.0 90.0 xyz
      dof rx rz ry
   end
   begin
      id 23
      name LeftUpLeg
      direction 0.000000 -1.000000 0.000000
      length 15.510451
      axis 0.0 0.0 0.0 xyz
      dof rx ry rz
   end
   begin
      id 24
      name LeftLeg
      direction 0.000000 -1.000000 0.000000
      length 14.858061
      axis 0.0 0.0 0.0 xyz
      dof rx ry rz
   end
   begin
      id 25
      name LeftFoot
      direction 0.000000 -0.258819 0.965926
      length 5.128852
      axis 15.0 0.0 0.0 xyz
      dof rx ry rz
   end
   begin
      id 26
      name LeftToeBase
      direction 0.000000 0.000000 1.000000
      length 2.952750
      axis 0.0 0.0 0.0 xyz
      dof rx ry rz
   end
   begin
      id 27
      name RightUpLeg
      direction 0.000000 -1.000000 0.000000
      length 15.510451
      axis 0.0 0.0 0.0 xyz
      dof rx ry rz
   end
   begin
      id 28
      name RightLeg
      direction 0.000000 -1.000000 0.000000
      length 14.858061
      axis 0.0 0.0 0.0 xyz
      dof rx ry rz
   end
   begin
      id 29
      name RightFoot
      direction 0.000000 -0.258819 0.965926
      length 5.128852
      axis 15.0 0.0 0.0 xyz
      dof rx ry rz
   end
   begin
      id 30
      name RightToeBase
      direction 0.000000 0.000000 1.000000
      length 2.952750
      axis 0.0 0.0 0.0 xyz
      dof rx ry rz
   end
:hierarchy
   begin
      root Spine_dum LeftUpLeg_dum RightUpLeg_dum
      Spine_dum Spine
      LeftUpLeg_dum LeftUpLeg
      RightUpLeg_dum RightUpLeg
      Spine Spine_dum1 Spine_dum2 Spine_dum3
      Spine_dum1 Head
      Spine_dum2 LeftShoulder
      Spine_dum3 RightShoulder
      LeftShoulder LeftArm
      LeftArm LeftForeArm
      LeftForeArm LeftHand
      LeftHand LeftHand_dum1 LeftHand_dum2
      LeftHand_dum1 LeftHandThumb1
      RightShoulder RightArm
      RightArm RightForeArm
      RightForeArm RightHand
      RightHand RightHand_dum1 RightHand_dum2
      RightHand_dum1 RightHandThumb1
      LeftUpLeg LeftLeg
      LeftLeg LeftFoot
      LeftFoot LeftToeBase
      RightUpLeg RightLeg
      RightLeg RightFoot
      RightFoot RightToeBase
   end

# File created by Blade
# Date/Time:  Tue Jan 27 19:14:06 2015
# Frame Rate: 120.000 fps
#------------------------------------------------------
:FULLY-SPECIFIED
:DEGREES
1
root 4.167457 32.400513 0.051279 -2.658625 1.776633 0.688678
Spine 2.931139 4.818715 -0.454376
Head -1.724289 -8.441028 2.818856
LeftShoulder -13.396302 -7.896095 42.772431
LeftArm 15.522838 -14.101379 -42.767768
LeftForeArm 15.026613 -0.000000 -9.763738
LeftHand 7.372876 -0.000000 -4.630677
LeftHandThumb1 -26.253704 0.000000 33.147579
RightShoulder -17.711935 -16.253844 -40.861494
RightArm 16.385735 20.938270 43.864752
RightForeArm -20.114472 -0.000000 6.753512
RightHand 14.305091 -0.000000 6.286121
RightHandThumb1 -24.326973 -0.000000 -32.862282
LeftUpLeg 7.242368 -4.265720 -1.660517
LeftLeg 3.019999 -0.000000 -0.000000
LeftFoot -16.933673 13.198181 -22.022518
LeftToeBase 17.090457 -0.000000 -0.000000
RightUpLeg 6.531610 0.147072 2.967724
RightLeg 1.339791 -0.000000 -0.000000
RightFoot -12.246127 -14.278468 13.731887
RightToeBase 11.612302 -0.000000 -0.000000
2
root 4.168965 32.399875 0.055716 -2.653651 1.772438 0.687501
Spine 2.922691 4.820293 -0.447252
Head -1.712124 -8.433021 2.811194
LeftShoulder -13.395994 -7.893657 42.772004
LeftArm 15.505769 -14.134502 -42.779645
LeftForeArm 15.070102 -0.000000 -9.739690
LeftHand 7.333358 -0.000000 -4.602694
LeftHandThumb1 -26.253704 0.000000 33.147579
RightShoulder -17.706092 -16.233333 -40.871603
RightArm 16.361444 20.890120 43.854160
RightForeArm -20.076460 0.000000 6.748423
RightHand 14.300358 -0.000000 6.315921
RightHandThumb1 -24.326973 -0.000000 -32.862282
LeftUpLeg 7.245277 -4.260722 -1.661194
LeftLeg 3.022376 -0.000000 -0.000000
LeftFoot -16.947643 13.189717 -22.030873
LeftToeBase 17.059501 -0.000000 -0.000000
RightUpLeg 6.533105 0.159552 2.969131
RightLeg 1.344238 -0.000000 -0.000000
RightFoot -12.242921 -14.295373 13.706614
RightToeBase 11.558634 -0.000000 -0.000000
3
root 4.169394 32.399603 0.059555 -2.652155 1.770603 0.682364
Spine 2.918015 4.812576 -0.444416
Head -1.697637 -8.417595 2.822630
LeftShoulder -13.393710 -7.919896 42.768657
LeftArm 15.466125 -14.116697 -42.754373
LeftForeArm 15.075748 -0.000000 -9.695099
LeftHand 7.074651 -0.000000 -4.695379
LeftHandThumb1 -26.253704 0.000000 33.147579
RightShoulder -17.699381 -16.254879 -40.852910
RightArm 16.379978 20.880892 43.849234
RightForeArm -20.052118 -0.000000 6.741651
RightHand 14.284210 -0.000000 6.362233
RightHandThumb1 -24.326973 -0.000000 -32.862282
LeftUpLeg 7.247235 -4.254912 -1.660113
LeftLeg 3.036407 -0.000000 -0.000000
LeftFoot -16.889150 13.201154 -21.891811
LeftToeBase 16.815880 -0.000000 -0.000000
RightUpLeg 6.537978 0.157536 2.973011
RightLeg 1.344339 -0.000000 -0.000000
RightFoot -12.255827 -14.275027 13.727913
RightToeBase 11.610057 -0.000000 -0.000000
4
root 4.170797 32.399314 0.063820 -2.651872 1.761474 0.679429
Spine 2.916387 4.827041 -0.435645
Head -1.685998 -8.417798 2.822076
LeftShoulder -13.403628 -7.891905 42.789793
LeftArm 15.442199 -14.333013 -42.834758
LeftForeArm 15.257246 -0.000000 -9.595892
LeftHand 7.241366 -0.000000 -4.666827
LeftHandThumb1 -26.253704 0.000000 33.147579
RightShoulder -17.700393 -16.206571 -40.862685
RightArm 16.342366 20.814373 43.822743
RightForeArm -20.049099 -0.000000 6.713508
RightHand 14.287340 -0.000000 6.364496
RightHandThumb1 -24.326973 -0.000000 -32.862282
LeftUpLeg 7.256032 -4.227464 -1.654006
LeftLeg 3.031508 -0.000000 -0.000000
LeftFoot -16.958210 13.158186 -22.015869
LeftToeBase 17.085879 -0.000000 -0.000000
RightUpLeg 6.539779 0.147916 2.970924
RightLeg 1.354739 -0.000000 -0.000000
RightFoot -12.242508 -14.260615 13.707176
RightToeBase 11.494228 -0.000000 -0.000000
5
root 4.172344 32.398829 0.067623 -2.648541 1.760093 0.679192
Spine 2.913918 4.826437 -0.435432
Head -1.684374 -8.415347 2.832284
LeftShoulder -13.411537 -7.875558 42.788276
LeftArm 15.442187 -14.332611 -42.837171
LeftForeArm 15.291588 0.000000 -9.551157
LeftHand 7.017604 -0.000000 -4.739222
LeftHandThumb1 -26.253704 0.000000 33.147579
RightShoulder -17.712690 -16.212234 -40.849898
RightArm 16.359418 20.814192 43.826561
RightForeArm -20.088001 -0.000000 6.687899
RightHand 14.406020 -0.000000 6.476002
RightHandThumb1 -24.326973 -0.000000 -32.862282
LeftUpLeg 7.262590 -4.239264 -1.659576
LeftLeg 3.027451 -0.000000 -0.000000
LeftFoot -16.977687 13.169278 -22.035719
LeftToeBase 17.082055 -0.000000 -0.000000
RightUpLeg 6.544080 0.150777 2.969877
RightLeg 1.351382 -0.000000 -0.000000
RightFoot -12.272140 -14.263047 13.736359
RightToeBase 11.676185 -0.000000 -0.000000
6
root 4.172164 32.398406 0.071478 -2.646692 1.754068 0.675393
Spine 2.911783 4.836452 -0.434098
Head -1.678890 -8.413175 2.845990
LeftShoulder -13.415024 -7.835207 42.781954
LeftArm 15.485091 -14.367954 -42.847847
LeftForeArm 15.301501 0.000000 -9.562063
LeftHand 7.002770 -0.000000 -4.710134
LeftHandThumb1 -26.253704 0.000000 33.147579
RightShoulder -17.717172 -16.248546 -40.835807
RightArm 16.382405 20.860536 43.857836
RightForeArm -20.120742 -0.000000 6.678897
RightHand 14.450572 -0.000000 6.468599
RightHandThumb1 -24.326973 -0.000000 -32.862282
LeftUpLeg 7.266947 -4.228356 -1.654584
LeftLeg 3.029047 -0.000000 -0.000000
LeftFoot -16.973488 13.173278 -22.004085
LeftToeBase 17.058793 -0.000000 -0.000000
RightUpLeg 6.547360 0.167888 2.975584
RightLeg 1.354850 -0.000000 -0.000000
RightFoot -12.269173 -14.275323 13.725152
RightToeBase 11.548370 -0.000000 -0.000000
7
root 4.173887 32.398152 0.075314 -2.649026 1.757815 0.675579
Spine 2.916120 4.833806 -0.428048
Head -1.672860 -8.419406 2.840347
LeftShoulder -13.421122 -7.834048 42.777092
LeftArm 15.495702 -14.322908 -42.839044
LeftForeArm 15.260843 -0.000000 -9.573220
LeftHand 6.976197 -0.000000 -4.750405
LeftHandThumb1 -26.253704 0.000000 33.147579
RightShoulder -17.716600 -16.221132 -40.834002
RightArm 16.357680 20.824089 43.837532
RightForeArm -20.033619 -0.000000 6.692452
RightHand 14.323677 -0.000000 6.371763
RightHandThumb1 -24.326973 -0.000000 -32.862282
LeftUpLeg 7.270834 -4.228702 -1.657332
LeftLeg 3.039450 -0.000000 -0.000000
LeftFoot -16.993147 13.151063 -22.036200
LeftToeBase 17.092091 -0.000000 -0.000000
RightUpLeg 6.558165 0.164800 2.972824
RightLeg 1.351871 -0.000000 -0.000000
RightFoot -12.279820 -14.269345 13.737660
RightToeBase 11.663533 -0.000000 -0.000000
8
root 4.175397 32.397454 0.078841 -2.650055 1.752802 0.677100
Spine 2.914058 4.838120 -0.418811
Head -1.683022 -8.488230 2.878437
LeftShoulder -13.410298 -7.875113 42.777848
LeftArm 15.461002 -14.268039 -42.819019
LeftForeArm 15.266394 -0.000000 -9.591750
LeftHand 6.996761 -0.000000 -4.766012
LeftHandThumb1 -26.253704 0.000000 33.147579
RightShoulder -17.714971 -16.246628 -40.851246
RightArm 16.371896 20.865409 43.882809
RightForeArm -20.078541 -0.000000 6.687262
RightHand 14.451492 -0.000000 6.473293
RightHandThumb1 -24.326973 -0.000000 -32.862282
LeftUpLeg 7.279152 -4.205235 -1.659725
LeftLeg 3.040298 -0.000000 -0.000000
LeftFoot -17.003890 13.130284 -22.053261
LeftToeBase 17.090879 -0.000000 -0.000000
RightUpLeg 6.560549 0.156658 2.967081
RightLeg 1.360783 -0.000000 -0.000000
RightFoot -12.286624 -14.261363 13.719608
RightToeBase 11.631366 -0.000000 -0.000000
9
root 4.176826 32.397410 0.082349 -2.660459 1.756554 0.673941
Spine 2.925521 4.846357 -0.405840
Head -1.671664 -8.509913 2.870584
LeftShoulder -13.400069 -7.850129 42.757733
LeftArm 15.497875 -14.266003 -42.813935
LeftForeArm 15.246036 -0.000000 -9.603411
LeftHand 6.965645 -0.000000 -4.776469
LeftHandThumb1 -26.253704 0.000000 33.147579
RightShoulder -17.721127 -16.265360 -40.852562
RightArm 16.375616 20.888455 43.904319
RightForeArm -20.095501 -0.000000 6.687909
RightHand 14.482995 -0.000000 6.417277
RightHandThumb1 -24.326973 -0.000000 -32.862282
LeftUpLeg 7.290046 -4.212931 -1.659097
LeftLeg 3.053693 -0.000000 -0.000000
LeftFoot -17.009366 13.120903 -22.046484
LeftToeBase 17.093936 -0.000000 -0.000000
RightUpLeg 6.578250 0.152032 2.967564
RightLeg 1.361681 -0.000000 -0.000000
RightFoot -12.291338 -14.248204 13.759781
RightToeBase 11.587997 -0.000000 -0.000000
